<?xml version="1.0" encoding="UTF-8" standalone="no"?>
<!-- Generator: Adobe Illustrator 15.1.0, SVG Export Plug-In . SVG Version: 6.00 Build 0)  -->
<svg id="Calque_2" xmlns="http://www.w3.org/2000/svg" width="424px" xml:space="preserve" height="500px" viewBox="0 0 424 500" baseProfile="tiny" version="1.2" y="0px" x="0px" xmlns:xlink="http://www.w3.org/1999/xlink">
	<g stroke-linejoin="round" stroke="#444" stroke-miterlimit="10" fill="#F4A4A2">
			<path d="m89.89 345.02h44.802v11.779h-15.034v35.923h-14.741v-35.923h-15.03v-11.779z"/>
			<path d="m141.33 345.02h39.501v10.188h-24.731v7.581h22.945v9.729h-22.945v9.405h25.442v10.802h-40.213v-47.7z"/>
			<path d="m218.81 384.85h-16.729l-2.326 7.875h-15.05l17.931-47.702h16.08l17.924 47.702h-15.442l-2.38-7.87zm-3.05-10.32l-5.265-17.147-5.209 17.147h10.47z"/>
			<path d="m241.16 345.02h19.386l7.473 29.028 7.424-29.028h19.376v47.702h-12.071v-36.381l-9.302 36.381h-10.929l-9.281-36.381v36.381h-12.072v-47.702h-0.01z"/>
		<g stroke-width="2">
			<path d="m59.189 270.34c-1.923-1.354-3.975-2.41-6.158-3.163-2.183-0.757-4.518-1.134-7.005-1.134-3.127 0-5.989 0.595-8.593 1.783-2.595 1.186-4.83 2.796-6.694 4.832-1.867 2.03-3.322 4.411-4.378 7.146-1.055 2.728-1.582 5.641-1.582 8.732s0.526 5.986 1.582 8.701c1.056 2.712 2.511 5.076 4.378 7.09 1.864 2.02 4.099 3.607 6.694 4.777 2.601 1.169 5.462 1.747 8.593 1.747 1.318 0 2.631-0.091 3.923-0.279 1.302-0.188 2.686-0.432 4.154-0.74v-14.8c0-0.718 0.208-1.31 0.62-1.78 0.419-0.474 1.04-0.711 1.868-0.711h15.371c0.565 0 1.166 0.228 1.813 0.686 0.64 0.448 0.955 1.049 0.955 1.806v27.346c0 1.017-0.542 1.851-1.64 2.49-1.77 1.205-3.728 2.241-5.878 3.111-2.146 0.867-4.384 1.582-6.723 2.147-2.335 0.564-4.696 0.99-7.09 1.27-2.396 0.286-4.715 0.422-6.979 0.422-3.992 0-7.827-0.507-11.497-1.523-3.676-1.02-7.112-2.468-10.312-4.352-3.202-1.884-6.115-4.138-8.733-6.752-2.618-2.617-4.865-5.521-6.752-8.704-1.884-3.186-3.332-6.608-4.349-10.285-1.023-3.673-1.53-7.502-1.53-11.493 0-3.992 0.507-7.831 1.526-11.5 1.017-3.677 2.465-7.123 4.349-10.341 1.887-3.222 4.135-6.151 6.752-8.789 2.621-2.64 5.534-4.884 8.733-6.752 3.199-1.863 6.635-3.315 10.312-4.354 3.67-1.033 7.508-1.553 11.497-1.553 4.521 0 8.789 0.627 12.796 1.894 4.018 1.26 7.792 3.075 11.334 5.449 0.64 0.38 1.13 0.881 1.471 1.501 0.338 0.617 0.263 1.325-0.227 2.117l-9.152 13.225c-0.497 0.601-0.98 1.01-1.474 1.212-0.484 0.17-1.143 0.01-1.975-0.53z"/>
			<path d="m91.231 249.27c0-0.789 0.205-1.423 0.617-1.894 0.416-0.465 1.039-0.708 1.868-0.708h36.507c3.877 0 7.512 0.728 10.902 2.176 3.391 1.452 6.349 3.42 8.87 5.907 2.526 2.484 4.511 5.395 5.962 8.73 1.449 3.332 2.176 6.882 2.176 10.648 0 2.563-0.348 5.005-1.042 7.32-0.702 2.31-1.669 4.485-2.914 6.499-1.247 2.014-2.718 3.839-4.436 5.482-1.711 1.637-3.585 3.036-5.619 4.205l14.521 27.35c0.263 0.529 0.601 1.149 1.017 1.867 0.416 0.715 0.62 1.338 0.62 1.861 0 0.61-0.195 1.071-0.594 1.387-0.396 0.321-0.929 0.474-1.607 0.474h-19.382c-0.646 0-1.215-0.185-1.725-0.562s-0.834-0.884-0.987-1.526l-13.731-25.826h-9.155v25.485c0 1.623-0.867 2.429-2.601 2.429h-16.784c-0.747 0-1.354-0.194-1.809-0.591s-0.676-1.01-0.676-1.838v-78.87zm44.239 25.09c0-1.127-0.205-2.26-0.624-3.387-0.409-1.134-0.994-2.167-1.75-3.108-0.753-0.941-1.656-1.731-2.708-2.371-1.059-0.64-2.228-1.056-3.504-1.243-1.059-0.075-2.046-0.14-2.968-0.198-0.926-0.059-1.929-0.088-3.024-0.088h-7.797v20.739h10.399c0.676 0 1.276-0.02 1.809-0.055 0.523-0.039 1.107-0.091 1.754-0.169 1.312-0.152 2.504-0.539 3.559-1.159 1.052-0.624 1.939-1.394 2.657-2.319 0.714-0.919 1.264-1.958 1.64-3.107 0.36-1.14 0.55-2.31 0.55-3.52z"/>
			<path d="m166.72 288.72c0-3.992 0.506-7.831 1.523-11.5 1.026-3.677 2.475-7.123 4.358-10.341 1.887-3.222 4.134-6.151 6.759-8.789 2.618-2.64 5.527-4.884 8.733-6.752 3.202-1.863 6.645-3.315 10.321-4.354 3.676-1.033 7.515-1.553 11.506-1.553 3.956 0 7.782 0.52 11.481 1.553 3.692 1.039 7.142 2.491 10.35 4.354 3.203 1.868 6.123 4.112 8.766 6.752 2.635 2.638 4.885 5.567 6.752 8.789 1.867 3.218 3.322 6.664 4.355 10.341 1.033 3.669 1.556 7.508 1.556 11.5 0 3.991-0.522 7.82-1.556 11.496-1.033 3.674-2.487 7.097-4.355 10.286-1.867 3.183-4.117 6.086-6.752 8.703-2.643 2.615-5.563 4.872-8.766 6.752-3.205 1.884-6.657 3.333-10.35 4.353-3.696 1.017-7.521 1.523-11.481 1.523-3.991 0-7.83-0.507-11.506-1.523-3.677-1.02-7.116-2.469-10.321-4.353-3.206-1.883-6.115-4.137-8.733-6.752-2.625-2.617-4.872-5.521-6.759-8.703-1.887-3.187-3.332-6.609-4.358-10.286-1-3.68-1.51-7.51-1.51-11.5zm21.87-0.06c0 3.124 0.526 6.047 1.578 8.759 1.049 2.715 2.533 5.076 4.433 7.093 1.9 2.011 4.144 3.596 6.742 4.748 2.595 1.146 5.456 1.722 8.581 1.722 3.124 0 5.989-0.575 8.606-1.722 2.614-1.149 4.871-2.737 6.768-4.748 1.9-2.017 3.378-4.378 4.43-7.093 1.053-2.712 1.582-5.635 1.582-8.759 0-3.089-0.529-5.999-1.582-8.73-1.055-2.73-2.529-5.111-4.43-7.147-1.896-2.033-4.153-3.635-6.768-4.804-2.617-1.166-5.482-1.75-8.606-1.75-3.121 0-5.982 0.584-8.581 1.75-2.595 1.169-4.842 2.768-6.742 4.804s-3.384 4.417-4.433 7.147c-1.06 2.73-1.58 5.64-1.58 8.73z"/>
			<path d="m267.2 249.16c0-0.679 0.202-1.26 0.621-1.757 0.409-0.483 1.033-0.737 1.861-0.737h16.615c0.564 0 1.166 0.228 1.809 0.683 0.637 0.451 0.958 1.052 0.958 1.809v78.938c0 1.659-0.926 2.484-2.767 2.484h-16.62c-1.656 0-2.482-0.825-2.482-2.484v-78.93z"/>
			<path d="m307.48 249.16c0-0.679 0.205-1.26 0.62-1.757 0.416-0.483 1.036-0.737 1.864-0.737h18.474c0.532 0 1.081 0.137 1.646 0.396 0.562 0.27 1.052 0.721 1.465 1.357 4.783 7.727 9.535 15.336 14.241 22.835 4.712 7.499 9.473 15.108 14.299 22.824v-45.26c0.146-0.676 0.452-1.205 0.9-1.585 0.457-0.373 0.98-0.565 1.581-0.565h16.103c0.789 0 1.451 0.222 1.978 0.656 0.529 0.433 0.799 1.043 0.799 1.835v79.225c0 0.754-0.23 1.313-0.682 1.666-0.452 0.357-1.075 0.536-1.864 0.536h-18.025c-0.49 0-0.922-0.169-1.302-0.507-0.374-0.338-0.77-0.789-1.183-1.354-5.014-8.288-9.967-16.476-14.864-24.578-4.897-8.104-9.87-16.297-14.92-24.582v48.54c0 0.828-0.188 1.452-0.565 1.867-0.377 0.409-1.052 0.617-2.029 0.617h-16.06c-0.867 0-1.493-0.233-1.89-0.705-0.399-0.467-0.595-1.045-0.595-1.721v-79.04z"/>
		</g>
		<g stroke-width="2">
			<path d="m59.189 434.11c-1.923-1.354-3.975-2.413-6.158-3.163-2.183-0.754-4.518-1.134-7.005-1.134-3.127 0-5.989 0.598-8.593 1.783-2.595 1.188-4.83 2.796-6.694 4.832-1.867 2.033-3.322 4.414-4.378 7.146-1.055 2.731-1.582 5.645-1.582 8.732 0 3.089 0.526 5.986 1.582 8.701 1.056 2.708 2.511 5.076 4.378 7.09 1.864 2.02 4.099 3.607 6.694 4.777 2.601 1.172 5.462 1.75 8.593 1.75 1.318 0 2.631-0.094 3.923-0.279 1.302-0.191 2.686-0.432 4.154-0.74v-14.803c0-0.718 0.208-1.309 0.62-1.776 0.419-0.475 1.04-0.712 1.868-0.712h15.371c0.565 0 1.166 0.228 1.813 0.686 0.64 0.448 0.955 1.049 0.955 1.806v27.346c0 1.017-0.542 1.854-1.64 2.491-1.77 1.205-3.728 2.237-5.878 3.107-2.146 0.867-4.384 1.582-6.723 2.147-2.335 0.564-4.696 0.987-7.09 1.27-2.396 0.282-4.715 0.422-6.979 0.422-3.992 0-7.827-0.503-11.497-1.52-3.676-1.02-7.112-2.472-10.312-4.355-3.202-1.88-6.115-4.134-8.733-6.752-2.618-2.621-4.865-5.521-6.752-8.707-1.884-3.186-3.332-6.608-4.349-10.285-1.023-3.67-1.53-7.502-1.53-11.497 0-3.991 0.507-7.827 1.526-11.503 1.017-3.67 2.465-7.116 4.349-10.341 1.887-3.219 4.135-6.148 6.752-8.789 2.621-2.637 5.534-4.881 8.733-6.752 3.199-1.86 6.635-3.313 10.312-4.352 3.67-1.036 7.508-1.553 11.497-1.553 4.521 0 8.789 0.627 12.796 1.894 4.018 1.261 7.792 3.079 11.334 5.45 0.64 0.38 1.13 0.88 1.471 1.5 0.338 0.614 0.263 1.328-0.227 2.117l-9.152 13.226c-0.497 0.601-0.98 1.01-1.474 1.211-0.484 0.18-1.143 0.02-1.975-0.51z"/>
			<path d="m91.231 413.04c0-0.789 0.205-1.422 0.617-1.894 0.416-0.464 1.039-0.708 1.868-0.708h36.507c3.877 0 7.512 0.728 10.902 2.177 3.391 1.451 6.349 3.419 8.87 5.907 2.526 2.481 4.511 5.395 5.962 8.729 1.449 3.336 2.176 6.882 2.176 10.649 0 2.563-0.348 5.002-1.042 7.32-0.702 2.31-1.669 4.485-2.914 6.499-1.247 2.014-2.718 3.839-4.436 5.479-1.711 1.637-3.585 3.04-5.619 4.209l14.521 27.35c0.263 0.529 0.601 1.149 1.017 1.867 0.416 0.714 0.62 1.338 0.62 1.864 0 0.607-0.195 1.065-0.594 1.387-0.396 0.321-0.929 0.478-1.607 0.478h-19.382c-0.646 0-1.215-0.186-1.725-0.565-0.51-0.374-0.834-0.88-0.987-1.526l-13.731-25.822h-9.155v25.484c0 1.621-0.867 2.43-2.601 2.43h-16.784c-0.747 0-1.354-0.195-1.809-0.592-0.455-0.396-0.676-1.01-0.676-1.838v-78.89zm44.239 25.08c0-1.127-0.205-2.261-0.624-3.391-0.409-1.134-0.994-2.166-1.75-3.104-0.753-0.945-1.656-1.734-2.708-2.374-1.059-0.64-2.228-1.053-3.504-1.241-1.059-0.071-2.046-0.143-2.968-0.198-0.926-0.058-1.929-0.087-3.024-0.087h-7.797v20.736h10.399c0.676 0 1.276-0.017 1.809-0.056 0.523-0.039 1.107-0.091 1.754-0.169 1.312-0.152 2.504-0.539 3.559-1.159 1.052-0.62 1.939-1.396 2.657-2.318 0.714-0.916 1.264-1.959 1.64-3.108 0.36-1.14 0.55-2.32 0.55-3.53z"/>
			<path d="m166.72 452.48c0-3.991 0.506-7.827 1.523-11.503 1.026-3.67 2.475-7.116 4.358-10.341 1.887-3.219 4.134-6.148 6.759-8.789 2.618-2.637 5.527-4.881 8.733-6.752 3.202-1.86 6.645-3.313 10.321-4.352 3.676-1.036 7.515-1.553 11.506-1.553 3.956 0 7.782 0.517 11.481 1.553 3.692 1.039 7.142 2.491 10.35 4.352 3.203 1.871 6.123 4.115 8.766 6.752 2.635 2.641 4.885 5.57 6.752 8.789 1.867 3.225 3.322 6.671 4.355 10.341 1.033 3.676 1.556 7.508 1.556 11.503s-0.522 7.824-1.556 11.5c-1.033 3.677-2.487 7.1-4.355 10.285-1.867 3.187-4.117 6.087-6.752 8.708-2.643 2.614-5.563 4.871-8.766 6.752-3.205 1.883-6.657 3.335-10.35 4.354-3.696 1.017-7.521 1.521-11.481 1.521-3.991 0-7.83-0.504-11.506-1.521-3.677-1.02-7.116-2.472-10.321-4.354-3.206-1.881-6.115-4.135-8.733-6.752-2.625-2.621-4.872-5.521-6.759-8.708-1.887-3.186-3.332-6.608-4.358-10.285-1-3.68-1.51-7.51-1.51-11.5zm21.87-0.06c0 3.127 0.526 6.047 1.578 8.762 1.049 2.712 2.533 5.073 4.433 7.093 1.9 2.011 4.144 3.596 6.742 4.745 2.595 1.146 5.456 1.722 8.581 1.722 3.124 0 5.989-0.578 8.606-1.722 2.614-1.149 4.871-2.734 6.768-4.745 1.9-2.02 3.378-4.381 4.43-7.093 1.053-2.712 1.582-5.635 1.582-8.762 0-3.089-0.529-5.999-1.582-8.73-1.055-2.731-2.529-5.111-4.43-7.148-1.896-2.032-4.153-3.637-6.768-4.803-2.617-1.166-5.482-1.754-8.606-1.754-3.121 0-5.982 0.585-8.581 1.754-2.595 1.166-4.842 2.767-6.742 4.803-1.9 2.037-3.384 4.417-4.433 7.148-1.06 2.72-1.58 5.63-1.58 8.72z"/>
			<path d="m267.2 412.92c0-0.676 0.202-1.261 0.621-1.757 0.409-0.484 1.033-0.734 1.861-0.734h16.615c0.564 0 1.166 0.228 1.809 0.682 0.637 0.452 0.958 1.053 0.958 1.81v78.941c0 1.657-0.926 2.485-2.767 2.485h-16.62c-1.656 0-2.482-0.828-2.482-2.485v-78.94z"/>
			<path d="m307.48 412.92c0-0.676 0.205-1.261 0.62-1.757 0.416-0.484 1.036-0.734 1.864-0.734h18.474c0.532 0 1.081 0.133 1.646 0.396 0.562 0.266 1.052 0.718 1.465 1.354 4.783 7.726 9.535 15.339 14.241 22.834 4.712 7.499 9.473 15.108 14.299 22.825v-45.264c0.146-0.675 0.452-1.205 0.9-1.585 0.457-0.38 0.98-0.564 1.581-0.564h16.103c0.789 0 1.451 0.221 1.978 0.652 0.529 0.436 0.799 1.043 0.799 1.838v79.229c0 0.753-0.23 1.309-0.682 1.666s-1.075 0.536-1.864 0.536h-18.025c-0.49 0-0.922-0.169-1.302-0.507-0.374-0.338-0.77-0.789-1.183-1.354-5.014-8.288-9.967-16.479-14.864-24.582-4.897-8.1-9.87-16.297-14.92-24.578v48.54c0 0.828-0.188 1.451-0.565 1.867-0.377 0.412-1.052 0.617-2.029 0.617h-16.06c-0.867 0-1.493-0.234-1.89-0.705-0.399-0.471-0.595-1.046-0.595-1.721v-79.04z"/>
		</g>
	</g>
		<path stroke="#444" stroke-width="2" stroke-miterlimit="10" d="m120.18 99.124s-38.43-30.312-86.064 15.156c0 0-6.496 17.32-24.9 36.807 0 0-9.743 12.448 9.743 12.99 19.486 0.543 54.668-8.661 54.668-8.661s-5.414 13.533 1.082 23.276 4.872 1.624 0 10.824c-4.872 9.201-2.705 20.025-2.166 22.191 0 0-20.029-6.495-61.707 35.725 0 0-11.26 11.919-4.06 22.475 0.185 1.186 11.137-19.893 26.764-22.475h348.07s35.725-30.853 35.725-73.073-27.063-64.411-27.063-64.411l27.063-41.678s10.282-18.404-4.871-30.311l-23.273-14.615s-18.404-9.2-31.396 8.119l-23.276 44.926s-47.63-20.028-89.851-3.79l-24.894-51.7s-14.615-27.326-39.515-11.63l-21.652 16.238s-12.991 6.495-1.082 28.688l29.229 49.797s-17.86-20.576-66.58-4.876z" fill="#F4A4A2"/>
		<path stroke="#444" stroke-width="2" stroke-miterlimit="10" d="m219.24 151.63s-16.713-55.737-67.66-58.374c-32.477 0-51.963 29.187-51.963 29.187" fill="none"/>
		<path d="m225.35 32.468s-7.736-8.736-27.222 0l19.665-14.663 7.55 14.663z" fill="#444"/>
		<path d="m417.35 68.27s-18.405-10.824-25.981-16.781c0 0 17.794 19.983 21.074 24.335l4.91-7.554z" fill="#444"/>
		<polygon points="253.34 98.581 249.53 70.911 242.69 68.465" fill="#444"/>
		<path d="m92.033 111.57s-18.405-9.201-37.891 6.495l-16.239 22.734h12.991c0.004 0.01 16.782 2.72 41.139-29.22z" fill="#444"/>
		<path d="m116.39 144.59s-16.781-3.248-16.781 9.742c0 12.991 8.389 9.201 8.389 9.201s-2.98-7.03 8.39-18.94z" fill="#444"/>
		<path d="m113.14 211.17s-15.157 0.543-13.533-9.2 8.389-10.825 8.389-10.825-0.81 14.62 5.14 20.03z" fill="#444"/>
		<path d="m35.199 247.43s15.157-20.028 38.43-21.652v21.652h-38.43z" fill="#444"/>
		<path d="m77.418 247.43s9.743-27.063 24.9-18.943c0 0 15.157 6.495 27.063 2.166 0 0 15.696-7.038 26.524 1.624 0 0 7.577 5.953 17.862-0.542 0 0 21.11-9.201 31.396 1.623 0 0 42.223 1.624 50.881-12.448 0 0 35.186-34.098 37.349-19.756 0 0-3.793 30.581 10.282 31.123 0 0 28.69-2.156 28.69-21.106 0-18.951-11.367-20.032-11.367-20.032s-7.576-5.414 11.367-5.414 30.854 5.953 21.11 20.567c0 0-7.561 12.991 1.902 12.449 0 0 7.298-0.543-5.692 10.824 0 0-6.499 8.119 10.824 7.038 0 0 16.784 4.329 12.451-20.029 0 0 16.365-4.264 23.881 13.836l-15.222 17.018h-304.19z" fill="#444"/>
		<path d="m225.35 191.14l-20.184 48.716h10.09c-0.01 0 12.41-24.9 10.09-48.72z" fill="#444"/>
		<path d="m237.13 193.31s-12.695 10.571 8.086 14.615c0 0 12.51-9.2-8.09-14.61z" fill="#444"/>
		<path d="m358.35 185.73s2.163 10.825 9.201 7.577c0 0 1.08-5.96-9.2-7.58z" fill="#444"/>
		<path stroke="#444" stroke-width="2" stroke-miterlimit="10" d="m198.13 176.53c0 42.22-38.703 42.762-38.703 42.762s-34.913 0-34.913-42.762c0-42.763 34.913-42.763 34.913-42.763s38.7-4.47 38.7 42.76z" fill="#EF7E8A"/>
		<ellipse cy="161.37" cx="160.51" rx="7.85" ry="9.743" fill="#444"/>
		<ellipse cy="193.31" cx="160.51" rx="7.85" ry="9.743" fill="#444"/>
</svg>
