<?xml version="1.0" encoding="utf-8"?>
<!-- Generator: Adobe Illustrator 15.1.0, SVG Export Plug-In . SVG Version: 6.00 Build 0)  -->
<!DOCTYPE svg PUBLIC "-//W3C//DTD SVG 1.1//EN" "http://www.w3.org/Graphics/SVG/1.1/DTD/svg11.dtd">
<svg version="1.1" id="Calque_1" xmlns="http://www.w3.org/2000/svg" xmlns:xlink="http://www.w3.org/1999/xlink" x="0px" y="0px"
	 width="256.679px" height="177.096px" viewBox="0 0 256.679 177.096" enable-background="new 0 0 256.679 177.096"
	 xml:space="preserve">
<g>
	<path fill="#FFFFFF" d="M171.952,35.037c-1.193,0-2.899,0.267-4.86,0.682c4.731,8.205,7.36,17.249,7.36,26.746
		c0,33.575-32.792,61.497-75.559,66.62c14.738,18.459,41.963,30.881,73.059,30.881c5.146,0,10.314-0.348,15.365-1.031
		c0.111-0.014,0.224-0.021,0.335-0.021c0.567,0,1.121,0.193,1.568,0.553l21.89,17.631l2.06-23.584
		c0.08-0.914,0.655-1.713,1.498-2.076c25.913-11.199,42.011-31.865,42.011-53.936C256.679,63.057,218.671,35.037,171.952,35.037z"/>
	<path fill="#FFFFFF" d="M169.452,62.464c0-9.091-2.67-17.725-7.426-25.523C148.761,15.191,119.114,0,84.727,0
		C38.008,0,0,28.021,0,62.464c0,22.071,16.098,42.737,42.01,53.934c0.844,0.365,1.419,1.162,1.499,2.078l2.06,23.584l21.89-17.633
		c0.535-0.43,1.224-0.621,1.903-0.529c5.051,0.684,10.22,1.029,15.365,1.029c3.659,0,7.256-0.191,10.794-0.525
		C137.156,120.48,169.452,94.209,169.452,62.464z M139.001,56.015c-0.721,4.465-5.774,7.021-9.641,8.168
		c0.125,0.041,0.251,0.074,0.376,0.115c4.594,1.518,6.736,6.385,2.692,10.049c-3.483,3.159-7.078,5.504-11.271,7.629
		c-4.266,2.16-12.14,3.09-15.588-1.143c-0.742-0.912-1.077-1.828-1.134-2.725c-15.072,5.664-32.637,5.738-48.142,7.734
		c-3.99,0.514-11.327-1.061-10.438-6.572c0.479-2.971,3.201-5.469,6.122-6.94c-3.235-0.605-6.354-2.291-6.169-5.738
		c-6.118,0.844-12.234,1.678-18.312,2.635c-3.994,0.629-11.314-1.139-10.438-6.572c0.739-4.578,5.9-6.994,9.779-8.211
		c12.965-4.064,26.31-6.287,39.796-7.277c-0.988-1.471-1.233-3.328-0.127-5.35c2.902-5.301,9.679-6.799,15.176-6.799
		c11.075,0,22.15,0,33.226,0c3.516,0,8.141,2.488,7.478,6.598c-0.477,2.953-2.938,4.965-5.422,6.4
		c4.876,0.414,9.733,0.889,14.559,1.4C134.991,49.787,139.706,51.644,139.001,56.015z"/>
</g>
</svg>
